<svg width="24" height="24" viewBox="0 0 24 24" fill="none" xmlns="http://www.w3.org/2000/svg">
<g id="icon/ic_store">
<g id="Vector">
<path fill-rule="evenodd" clip-rule="evenodd" d="M3.1 12.21C3.37615 12.21 3.6 12.4339 3.6 12.71V18.49C3.6 19.8939 4.74615 21.04 6.15 21.04H18.11C19.5139 21.04 20.66 19.8939 20.66 18.49V12.71C20.66 12.4339 20.8839 12.21 21.16 12.21C21.4361 12.21 21.66 12.4339 21.66 12.71V18.49C21.66 20.4461 20.0661 22.04 18.11 22.04H6.15C4.19386 22.04 2.6 20.4461 2.6 18.49V12.71C2.6 12.4339 2.82386 12.21 3.1 12.21Z" fill="#121E6C"/>
<path fill-rule="evenodd" clip-rule="evenodd" d="M4.6992 3.45961L2.29994 8.36809C1.37994 10.2673 2.68576 12.4687 4.74942 12.6035L4.75291 12.6H4.96C6.40575 12.6 7.63574 11.5569 7.86641 10.1302L9.02241 3H5.43C5.12317 3 4.83627 3.17927 4.6992 3.45961ZM3.80081 3.02039C4.10375 2.40075 4.73685 2 5.43 2H10.1976L8.8536 10.2898C8.55559 12.1324 7.01404 13.4963 5.17276 13.5943L5.1571 13.61H4.95C2.02855 13.61 0.13019 10.5518 1.40007 7.93191L1.40079 7.93043L3.80081 3.02039Z" fill="#121E6C"/>
<path fill-rule="evenodd" clip-rule="evenodd" d="M9.18443 2H15.0356L16.1736 9.03009C16.5628 11.434 14.7082 13.61 12.28 13.61H11.94C9.51182 13.61 7.65723 11.434 8.04643 9.0301L9.18443 2ZM10.0356 3L9.03358 9.1899C8.74278 10.986 10.1282 12.61 11.94 12.61H12.28C14.0918 12.61 15.4772 10.986 15.1864 9.18991L14.1844 3H10.0356Z" fill="#121E6C"/>
<path fill-rule="evenodd" clip-rule="evenodd" d="M14.0224 2.01H18.79C19.4832 2.01 20.1163 2.41075 20.4192 3.03039L20.4198 3.03153L22.8092 7.95032C24.0913 10.5732 22.1785 13.63 19.26 13.63H18.76V13.5784C17.0466 13.3602 15.6488 12.0357 15.3665 10.3003L14.0224 2.01ZM19.6103 12.61C21.5899 12.3816 22.8157 10.2398 21.9108 8.38968L21.9103 8.38847L19.5208 3.46961C19.3836 3.18955 19.0967 3.01 18.79 3.01H15.1976L16.3535 10.1397C16.5843 11.558 17.8156 12.61 19.26 12.61H19.6103Z" fill="#121E6C"/>
</g>
</g>
</svg>
