<svg width="20" height="20" viewBox="0 0 20 20" fill="none" xmlns="http://www.w3.org/2000/svg">
<g clip-path="url(#clip0_3165_13573)">
<g opacity="0.1">
<path d="M4.67741 11.8532L15.6357 3.84277C15.0316 2.99902 14.2712 2.28027 13.3545 1.78027L3.32324 9.09277C3.54199 10.124 4.03158 11.0615 4.66699 11.8532H4.67741Z" fill="white"/>
<path d="M16.6462 6.07194C16.5107 5.56152 16.3441 5.06152 16.0941 4.60319L5.27116 12.499C5.64616 12.8636 6.08366 13.1761 6.54199 13.4469L16.6462 6.07194Z" fill="white"/>
</g>
<path d="M15.6351 5.7194L15.7288 6.06315L16.0518 6.1569L15.7393 6.24023L15.6351 6.60482L15.5413 6.25065L15.1976 6.1569L15.5413 6.06315L15.6351 5.7194Z" fill="white"/>
<path d="M14.0934 3.55273L14.3643 4.49023L15.1976 4.7194L14.3643 4.95898L14.0934 5.92773L13.833 4.9694L12.9268 4.7194L13.833 4.4694L14.0934 3.55273Z" fill="white"/>
<path d="M1.4744 3.41667C0.974405 3.41667 0.609821 3.90625 0.766071 4.38542L1.27649 5.91667C1.38065 6.21875 1.6619 6.42708 1.98482 6.42708H2.4744C1.9744 6.42708 1.60982 6.91667 1.76607 7.39583L2.27649 8.92708C2.38065 9.22917 2.6619 9.4375 2.98482 9.4375H3.4744C2.9744 9.4375 2.60982 9.92708 2.76607 10.4062L3.27649 11.9375C3.38065 12.2396 3.6619 12.4479 3.98482 12.4479H5.67232V18.75C5.67232 18.9688 5.87024 19.125 6.04732 19.0625L9.93274 17.5938C9.99524 17.5729 10.0577 17.5729 10.1202 17.5938L14.0057 19.0625C14.1932 19.1354 14.3807 18.9792 14.3807 18.75V12.4479H16.0682C16.3911 12.4479 16.6723 12.2396 16.7765 11.9375L17.2869 10.4062C17.4432 9.92708 17.089 9.4375 16.5786 9.4375H17.0682C17.3911 9.4375 17.6723 9.22917 17.7765 8.92708L18.2869 7.39583C18.4432 6.91667 18.089 6.42708 17.5786 6.42708H18.0682C18.3911 6.42708 18.6723 6.21875 18.7765 5.91667L19.2869 4.38542C19.4432 3.90625 19.089 3.41667 18.5786 3.41667H1.4744Z" fill="#8A7EEF"/>
<path d="M10.0161 14.3958C13.79 14.3958 16.8494 11.3831 16.8494 7.66667C16.8494 3.95025 13.79 0.9375 10.0161 0.9375C6.24213 0.9375 3.18274 3.95025 3.18274 7.66667C3.18274 11.3831 6.24213 14.3958 10.0161 14.3958Z" fill="#C1BEEA"/>
<path d="M7.49524 6.72917L8.17232 8.0625L9.65149 8.29167L8.58899 9.34375L8.82857 10.8229L7.49524 10.1354L6.16191 10.8229L6.40149 9.34375L5.33899 8.29167L6.81816 8.0625L7.49524 6.72917Z" fill="#8A7EEF"/>
<path d="M12.5369 6.72917L13.214 8.0625L14.6932 8.29167L13.6307 9.34375L13.8702 10.8229L12.5369 10.1354L11.2036 10.8229L11.4432 9.34375L10.3807 8.29167L11.8598 8.0625L12.5369 6.72917Z" fill="#8A7EEF"/>
<path d="M10.0161 3.11458L10.6932 4.44792L12.1723 4.67708L11.1098 5.72917L11.3494 7.20833L10.0161 6.52083L8.68274 7.20833L8.92232 5.72917L7.85982 4.67708L9.33899 4.44792L10.0161 3.11458Z" fill="#8A7EEF"/>
<path opacity="0.3" d="M10.026 1.51953C6.57812 1.51953 3.79688 4.26953 3.79688 7.65495C3.79688 11.0404 6.58854 13.7904 10.026 13.7904C13.4635 13.7904 16.2552 11.0404 16.2552 7.65495C16.2552 4.26953 13.4635 1.51953 10.026 1.51953ZM10.026 13.2174C6.91146 13.2174 4.38021 10.7279 4.38021 7.65495C4.38021 4.58203 6.91146 2.09245 10.026 2.09245C13.1406 2.09245 15.6719 4.58203 15.6719 7.65495C15.6719 10.7279 13.1406 13.2174 10.026 13.2174Z" fill="white"/>
<g opacity="0.1">
<path d="M4.70378 11.863L15.6621 3.85254C15.0579 3.00879 14.2975 2.29004 13.3809 1.79004L3.34961 9.10254C3.56836 10.1338 4.05794 11.0713 4.69336 11.863H4.70378Z" fill="white"/>
<path d="M16.6725 6.08171C16.5371 5.57129 16.3704 5.07129 16.1204 4.61296L5.29753 12.5088C5.67253 12.8734 6.11003 13.1859 6.56836 13.4567L16.6725 6.08171Z" fill="white"/>
</g>
<path d="M14.1198 3.56104L14.3906 4.49854L15.224 4.7277L14.3906 4.96729L14.1198 5.93604L13.8594 4.9777L12.9531 4.7277L13.8594 4.4777L14.1198 3.56104Z" fill="white"/>
<path d="M15.6614 5.72778L15.7656 6.07153L16.0781 6.16528L15.7656 6.24862L15.6614 6.6132L15.5677 6.25903L15.2239 6.16528L15.5677 6.07153L15.6614 5.72778Z" fill="white"/>
</g>
<defs>
<clipPath id="clip0_3165_13573">
<rect width="20" height="20" fill="white"/>
</clipPath>
</defs>
</svg>
