<svg width="20" height="20" viewBox="0 0 20 20" fill="none" xmlns="http://www.w3.org/2000/svg">
  <path d="M9.049 2.927C9.349 2.006 10.652 2.006 10.951 2.927L12.021 6.219C12.143 6.598 12.497 6.849 12.901 6.849H16.363C17.332 6.849 17.734 8.089 16.951 8.659L14.151 10.693C13.824 10.928 13.693 11.348 13.787 11.811L14.857 15.103C15.157 16.024 14.102 16.791 13.317 16.221L10.517 14.187C10.19 13.952 9.81 13.952 9.483 14.187L6.683 16.221C5.899 16.791 4.845 16.024 5.144 15.103L6.214 11.811C6.308 11.348 6.177 10.928 5.85 10.693L3.05 8.659C2.267 8.089 2.67 6.849 3.638 6.849H7.099C7.503 6.849 7.858 6.598 7.979 6.219L9.049 2.927Z" fill="white"/>
</svg>
