<svg width="37" height="36" viewBox="0 0 37 36" fill="none" xmlns="http://www.w3.org/2000/svg">
<path d="M9.81636 7.90235C14.8851 6.44979 19.9539 5.52015 25.2002 4.88102C25.7721 4.82292 26.3244 5.1909 26.5413 5.75256C27.0344 7.06955 27.2711 7.72804 27.7444 9.04503C27.9614 9.68416 27.6261 10.3039 27.0147 10.3814C21.6501 11.1561 16.4432 12.2213 11.2561 13.7901C10.625 14.0031 9.99386 13.6739 9.83608 13.0735C9.46135 11.6209 9.28384 10.9043 8.90911 9.47111C8.75132 8.83199 9.14578 8.11539 9.81636 7.90235Z" fill="#1E1E1E"/>
<path d="M5.7929 19.213C13.3862 15.9011 21.3739 13.9063 29.5786 12.8798C30.1309 12.8217 30.6634 13.209 30.8606 13.8094C31.2945 15.0683 31.5115 15.7074 31.9257 16.9857C32.1426 17.6055 31.8665 18.2059 31.334 18.2833C22.9912 19.6003 14.8654 21.8082 7.15377 25.275C6.52264 25.5849 5.91123 25.275 5.77317 24.6165C5.47733 23.0671 5.31955 22.3118 5.02371 20.7624C4.90537 20.162 5.24066 19.4647 5.7929 19.213Z" fill="#1E1E1E"/>
<path d="M14.3723 25.5655C19.3425 23.8805 24.3521 22.5635 29.48 21.479C30.052 21.3628 30.6437 21.7695 30.8409 22.4086C31.2551 23.6869 31.472 24.326 31.8665 25.6236C32.044 26.2046 31.8073 26.7663 31.3143 26.8825C26.206 28.1026 21.1964 29.6327 16.2263 31.3757C15.5163 31.6469 14.7471 31.2983 14.5498 30.6204L13.5637 27.0374C13.3862 26.437 13.7412 25.7979 14.3723 25.5655Z" fill="#1E1E1E"/>
</svg>
