<svg width="40" height="40" viewBox="0 0 40 40" fill="none" xmlns="http://www.w3.org/2000/svg">
<rect width="40" height="40" rx="20" fill="white"/>
<path d="M30.4187 20.1834C30.4187 22.5818 30.4187 24.9898 30.4187 27.3882C30.4187 27.5992 30.5242 27.8295 30.3228 28.0309C30.1597 28.2036 29.9966 28.3092 29.7376 28.3092C28.5 28.2996 27.272 28.2996 26.0344 28.3092C25.737 28.3092 25.5643 28.1749 25.43 27.9446C24.816 26.8701 24.1924 25.7956 23.5785 24.7211C22.3505 22.553 21.1225 20.3752 19.8945 18.2071C19.8561 18.1495 19.8178 18.0824 19.7794 18.0248C19.741 17.9672 19.693 17.9001 19.6067 17.9289C19.5395 17.948 19.5299 18.0152 19.5299 18.0824C19.5203 18.1975 19.5203 18.3222 19.5203 18.4373C19.5203 21.3538 19.5203 24.2607 19.5203 27.1771C19.5203 28.1557 19.3764 28.2996 18.3979 28.2996C17.7935 28.2996 17.1891 28.2996 16.5847 28.2996C16.0283 28.2996 15.8076 28.0885 15.8076 27.5513C15.8076 22.6297 15.8076 17.7082 15.8076 12.7867C15.8076 12.2398 16.0475 12.0096 16.6135 12.0096C17.8319 12.0096 19.0599 12.0192 20.2782 12C20.614 12 20.8443 12.1055 21.017 12.4029C21.9475 14.053 22.8877 15.7031 23.8279 17.3436C24.7009 18.8786 25.5739 20.4136 26.4469 21.9486C26.4949 22.0349 26.5333 22.1788 26.6676 22.1309C26.7731 22.0925 26.7635 21.9774 26.7635 21.8814C26.7731 21.7471 26.7635 21.6224 26.7635 21.4881C26.7635 18.6196 26.7635 15.7607 26.7635 12.8922C26.7635 12.1919 26.9554 12 27.6653 12C28.3273 12 28.9989 12 29.6608 12C30.2172 12 30.4187 12.2015 30.4187 12.7579C30.4187 15.2426 30.4187 17.7082 30.4187 20.1834Z" fill="#200020"/>
<path d="M11.3754 15.5877C10.9436 15.5877 10.5023 15.5877 10.0706 15.5877C9.60053 15.5781 9.3511 15.3383 9.34151 14.8778C9.34151 14.1199 9.30313 13.362 9.38947 12.6041C9.42785 12.2492 9.62931 12.0285 9.99387 12.0189C10.934 12.0093 11.8838 12.0093 12.824 12.0189C13.1885 12.0285 13.3996 12.2492 13.4092 12.6233C13.4188 13.41 13.4284 14.1967 13.4092 14.9737C13.3996 15.3575 13.1598 15.5686 12.7568 15.5877C12.2963 15.5973 11.8358 15.5877 11.3754 15.5877Z" fill="#DA0081"/>
</svg>
