<svg width="25" height="24" viewBox="0 0 25 24" fill="none" xmlns="http://www.w3.org/2000/svg">
<path d="M12.5001 23.8761C19.0594 23.8761 24.3767 18.559 24.3767 12C24.3767 5.441 19.0594 0.123901 12.5001 0.123901C5.94086 0.123901 0.623535 5.441 0.623535 12C0.623535 18.559 5.94086 23.8761 12.5001 23.8761Z" fill="url(#paint0_radial_595_17077)"/>
<path d="M15.7033 9.07829H12.8918C12.8792 9.07829 12.8665 9.07651 12.8542 9.07906C12.4068 9.17608 11.5637 9.63338 11.568 10.6321C11.5448 11.0164 11.7131 11.6281 12.5167 11.8831C12.5191 11.8831 14.5208 11.8831 14.5208 11.8831C14.6096 11.8831 15.1569 12.0083 15.1206 12.9629C15.0838 13.9253 14.2633 14.0504 14.1453 14.1779H11.0399C10.9419 14.1779 10.8625 14.2712 10.8625 14.3691C10.8625 14.467 10.9419 14.5604 11.0399 14.5604H14.1623C14.1724 14.5604 14.1824 14.5137 14.1923 14.5119C14.6186 14.439 15.4352 14.0017 15.4751 12.9556C15.5266 11.6028 14.5479 11.5174 14.5379 11.5168C14.5393 11.5164 12.5598 11.5111 12.5598 11.5111C11.884 11.3874 11.9204 10.6699 11.9225 10.6386C11.9227 10.6343 11.9228 10.6455 11.9228 10.6412C11.9156 9.73512 12.7766 9.46076 12.9127 9.46076H15.7034C15.8014 9.46076 15.8808 9.36744 15.8808 9.26953C15.8806 9.17161 15.8012 9.07829 15.7033 9.07829Z" fill="white"/>
<path d="M19.984 9.05828C19.9679 9.05369 19.951 9.07829 19.9342 9.07829H17.8334C16.8825 9.07829 16.453 10.1794 16.4352 10.2275C16.4323 10.2353 16.4301 10.2295 16.4282 10.2377C16.4064 10.3362 15.8944 12.652 15.9116 13.4165C15.9281 14.1358 16.6606 14.3973 17.0457 14.4385C17.052 14.4392 17.0584 14.433 17.0649 14.433H19.9854C20.0846 14.433 20.1652 14.341 20.1652 14.2418C20.1652 14.1426 20.0848 14.0505 19.9854 14.0505H17.0759C16.9845 14.0505 16.2839 13.9437 16.2713 13.3869C16.2645 13.0881 16.3496 12.5162 16.4521 11.9384L20.5166 11.9081C20.6033 11.9074 20.6772 11.8466 20.6921 11.7611C20.7 11.7164 20.8826 10.677 20.8826 10.0537C20.8825 9.31211 20.0208 9.06899 19.984 9.05828ZM20.3623 11.5534L16.518 11.5855C16.636 10.9592 16.7561 10.4457 16.7764 10.3536C16.8174 10.2509 17.1701 9.46063 17.8334 9.46063H19.9058C20.018 9.46063 20.5231 9.65901 20.5231 10.0793C20.5231 10.5389 20.4127 11.2403 20.3623 11.5534Z" fill="white"/>
<path d="M11.0333 10.1548C11.1388 9.43743 10.2327 9.07829 10.0632 9.07829C10.0629 9.07829 10.0626 9.07829 10.0626 9.07829C9.33098 9.07829 8.22258 9.10341 8.10695 9.09946C8.09152 9.0978 8.07558 9.108 8.05952 9.11042C7.60642 9.18258 6.99115 9.7661 6.79354 10.3059L6.7966 10.3096C6.77684 10.3698 6.7595 10.4626 6.73311 10.6021C6.70111 10.7707 6.65636 11.0123 6.60295 11.3013C6.49636 11.8789 6.35574 12.6493 6.2155 13.4193C5.93502 14.9593 5.65659 16.4992 5.65659 16.4992C5.63938 16.5942 5.70248 16.6852 5.79746 16.7025C5.80792 16.7044 5.81837 16.7054 5.8287 16.7054C5.91157 16.7054 5.98526 16.6462 6.00043 16.5616C6.11823 15.9106 6.31138 14.8445 6.50491 13.7817C6.96119 14.3573 7.52878 14.4177 7.55721 14.4204C7.56422 14.4211 7.57123 14.4217 7.5785 14.421L9.37496 14.3696C9.39039 14.3693 9.40543 14.3668 9.42009 14.3624C10.2724 14.1068 10.5286 13.2273 10.5392 13.19C10.5409 13.1837 10.5424 13.1774 10.5434 13.1708L11.0311 10.1839C11.0323 10.1775 11.0325 10.1612 11.0333 10.1548ZM10.6845 10.1481L10.2005 13.1028C10.1752 13.1819 9.95262 13.8242 9.3413 14.0208L7.58194 14.0711C7.50086 14.0597 6.95189 13.9587 6.59619 13.2813C6.85525 11.8594 7.09314 10.5634 7.12387 10.4259C7.28693 9.98781 7.81435 9.51711 8.11026 9.4665C8.17732 9.47058 8.26898 9.47071 8.39584 9.47096C8.58108 9.47122 8.82854 9.47109 9.07574 9.47058C9.48537 9.46994 9.89474 9.46854 10.0229 9.46803C10.2304 9.4665 10.735 9.81875 10.6845 10.1481Z" fill="white"/>
<path d="M2.94105 8.97681C3.21727 8.97681 3.44119 8.73793 3.44119 8.44326C3.44119 8.14859 3.21727 7.90972 2.94105 7.90972C2.66483 7.90972 2.44091 8.14859 2.44091 8.44326C2.44091 8.73793 2.66483 8.97681 2.94105 8.97681Z" fill="#FDB718"/>
<path d="M2.43606 6.75899C2.43606 6.52454 2.2934 6.32757 2.0963 6.25604C1.9298 6.5573 1.77592 6.86659 1.63555 7.18315C1.71944 7.25085 1.82271 7.29254 1.93592 7.29254C2.21219 7.29254 2.43606 7.05362 2.43606 6.75899Z" fill="#FDB718"/>
<path d="M1.42621 8.44326C1.42621 8.29856 1.37177 8.16763 1.28406 8.0715C1.1813 8.36524 1.08964 8.66408 1.00983 8.96776C1.24594 8.92505 1.42621 8.7073 1.42621 8.44326Z" fill="#FDB718"/>
<path d="M3.01079 15.477C3.28701 15.477 3.51093 15.2381 3.51093 14.9435C3.51093 14.6488 3.28701 14.4099 3.01079 14.4099C2.73456 14.4099 2.51064 14.6488 2.51064 14.9435C2.51064 15.2381 2.73456 15.477 3.01079 15.477Z" fill="#FDB718"/>
<path d="M1.24403 14.9435C1.24403 14.721 1.08913 14.5388 0.888332 14.5085C0.945193 14.772 1.01034 15.0325 1.08441 15.2892C1.18092 15.2084 1.24403 15.0843 1.24403 14.9435Z" fill="#FDB718"/>
<path d="M2.43377 16.6833C2.43377 16.3887 2.20989 16.1498 1.93362 16.1498C1.7364 16.1498 1.5676 16.2726 1.48613 16.4494C1.58965 16.7049 1.70159 16.956 1.82207 17.2023C1.85802 17.2111 1.89512 17.2167 1.93362 17.2167C2.20977 17.2169 2.43377 16.978 2.43377 16.6833Z" fill="#FDB718"/>
<path d="M3.28272 13.2855H2.27976C2.21474 13.158 2.02848 12.9386 1.80613 12.9386C1.52986 12.9386 1.30599 13.189 1.30599 13.4836C1.30599 13.7782 1.52986 14.0275 1.80613 14.0275C2.02848 14.0275 2.21474 13.9228 2.27976 13.6678H3.40741L4.45933 11.7555H6.08164V11.5005H3.4222L2.32897 9.58813H0.864236C0.838228 9.71485 0.81477 9.84247 0.792714 9.9706H2.16999L3.06471 11.5005H0.63144C0.627997 11.5853 0.625193 11.6702 0.623535 11.7555H4.15271L3.28272 13.2855Z" fill="#FDB718"/>
<path fill-rule="evenodd" clip-rule="evenodd" d="M9.00854 8.43936L9.26046 7.04092L9.38593 7.06352L9.31585 7.45258C9.32978 7.44318 9.34464 7.43449 9.36041 7.42693L9.37058 7.42205L9.38181 7.42096L9.38796 7.48441C9.38181 7.42096 9.38181 7.42096 9.38181 7.42096L9.38194 7.42095L9.38223 7.42092L9.38324 7.42083L9.38693 7.4205C9.3901 7.42022 9.3947 7.41983 9.40052 7.41937C9.41217 7.41846 9.42877 7.41729 9.44888 7.41621C9.48898 7.41406 9.54358 7.41226 9.60086 7.41377C9.65763 7.41527 9.71954 7.42006 9.77329 7.43196C9.80019 7.43792 9.82701 7.44607 9.85085 7.4576C9.87022 7.46696 9.8903 7.47984 9.90652 7.49795C9.90891 7.49952 9.91152 7.50131 9.91431 7.50334C9.92546 7.51148 9.93968 7.5237 9.95357 7.54086C9.98213 7.57614 10.0071 7.6298 10.0041 7.70438L10.0039 7.70851L9.87839 8.43839L9.75274 8.41678L9.8768 7.69537C9.87754 7.65665 9.86488 7.63392 9.85448 7.62108C9.84872 7.61396 9.84301 7.60914 9.83912 7.60631C9.83723 7.60492 9.83586 7.60407 9.83526 7.60372L9.8215 7.59705L9.81202 7.58359C9.81153 7.58288 9.80773 7.57836 9.79536 7.57238C9.78337 7.56658 9.76683 7.56111 9.74573 7.55644C9.70348 7.54709 9.65082 7.54262 9.5975 7.54122C9.5447 7.53983 9.49369 7.54148 9.4557 7.54352C9.43677 7.54453 9.42121 7.54563 9.41045 7.54647C9.40881 7.5466 9.40728 7.54672 9.40587 7.54684C9.36715 7.56797 9.33407 7.60153 9.30913 7.63354C9.29597 7.65042 9.28587 7.66584 9.27912 7.67692C9.277 7.68041 9.27523 7.68344 9.27382 7.68591L9.13401 8.46196L9.00854 8.43936ZM7.91091 7.54828H7.38624V7.42079H7.93165L7.94047 7.42339L7.92247 7.48454C7.94047 7.42339 7.94047 7.42339 7.94047 7.42339L7.94061 7.42343L7.94077 7.42348L7.94113 7.42359L7.94203 7.42386L7.94451 7.42467C7.94645 7.42532 7.94897 7.42621 7.95198 7.42736C7.95798 7.42967 7.96602 7.43305 7.97534 7.43776C7.99382 7.4471 8.01831 7.46212 8.04192 7.48498C8.09135 7.53283 8.13204 7.6107 8.11494 7.72491L8.11491 7.72516L8.00541 8.49133H7.37469L7.36398 8.48736L7.38612 8.42758C7.36398 8.48736 7.36398 8.48736 7.36398 8.48736L7.36384 8.48731L7.36367 8.48725L7.36327 8.48709L7.3622 8.48668L7.359 8.48539C7.35642 8.48433 7.35297 8.48284 7.3488 8.48091C7.34049 8.47705 7.3292 8.47135 7.31629 8.46358C7.29075 8.44823 7.25721 8.42383 7.2281 8.38817C7.19861 8.35206 7.17354 8.30415 7.16674 8.2436C7.15995 8.18313 7.17195 8.11503 7.20848 8.03933L7.21181 8.03244L7.21667 8.02653L7.26589 8.06704C7.21667 8.02654 7.21667 8.02653 7.21667 8.02653L7.21676 8.02642L7.2169 8.02626L7.2173 8.02578L7.21861 8.02423C7.2197 8.02294 7.22124 8.02114 7.22319 8.01891C7.22708 8.01446 7.23263 8.00826 7.23959 8.00089C7.25343 7.98624 7.27319 7.96654 7.29677 7.94666C7.32016 7.92693 7.34857 7.90595 7.37974 7.88965C7.41046 7.87358 7.44777 7.86 7.48785 7.86H7.48892L7.96457 7.87596L7.98876 7.70666L7.98883 7.7062C7.99943 7.63569 7.97544 7.59807 7.95326 7.57659C7.94105 7.56477 7.92797 7.55667 7.91785 7.55155C7.91524 7.55024 7.9129 7.54916 7.91091 7.54828ZM7.94643 8.00291L7.487 7.98749C7.47514 7.9877 7.45899 7.99207 7.43883 8.00262C7.41862 8.01319 7.39805 8.02803 7.37895 8.04412C7.36004 8.06007 7.34383 8.0762 7.3323 8.08841C7.32703 8.09399 7.32282 8.09867 7.31988 8.10202C7.2947 8.15678 7.28996 8.19846 7.29343 8.22937C7.29705 8.26156 7.31011 8.28703 7.32686 8.30754C7.34397 8.3285 7.36475 8.34396 7.38198 8.35432C7.38883 8.35844 7.39486 8.3616 7.39947 8.36384H7.89485L7.94643 8.00291ZM8.46213 7.42079H9.01353V7.54828H8.49427C8.49123 7.5502 8.48768 7.55251 8.4837 7.55525C8.46846 7.56574 8.44719 7.58221 8.42453 7.60538C8.37938 7.65155 8.32894 7.72394 8.30863 7.82946L8.30772 7.8342L8.30613 7.83867L8.30595 7.83919L8.30515 7.84157C8.30441 7.84378 8.30329 7.84724 8.30187 7.85183C8.29903 7.86102 8.29503 7.87471 8.29063 7.89205C8.2818 7.92681 8.27147 7.97575 8.26551 8.03216C8.25425 8.13854 8.25928 8.26417 8.31167 8.37175L8.33859 8.37773H8.83542V8.50522H8.32458L8.22775 8.48369L8.21377 8.45921C8.1302 8.31297 8.1254 8.14465 8.13872 8.01874C8.14547 7.95495 8.15711 7.89988 8.16706 7.86067C8.17205 7.84102 8.17665 7.82524 8.18006 7.8142C8.18176 7.80868 8.18317 7.80434 8.18419 7.80128L8.18431 7.80093C8.21084 7.66838 8.27519 7.57574 8.33339 7.51624C8.36273 7.48624 8.39057 7.46458 8.41143 7.45022C8.42189 7.44303 8.43065 7.43763 8.43706 7.4339C8.44026 7.43203 8.44289 7.43058 8.44485 7.42952L8.44728 7.42823L8.44811 7.4278L8.44842 7.42765L8.44855 7.42758C8.44855 7.42758 8.44867 7.42752 8.47718 7.48454L8.44855 7.42758L8.46213 7.42079Z" fill="white"/>
<defs>
<radialGradient id="paint0_radial_595_17077" cx="0" cy="0" r="1" gradientUnits="userSpaceOnUse" gradientTransform="translate(12.7125 11.9574) scale(11.8764)">
<stop offset="0.3155" stop-color="#0059B5"/>
<stop offset="0.5312" stop-color="#0051A8"/>
<stop offset="0.7289" stop-color="#004289"/>
<stop offset="1" stop-color="#002653"/>
</radialGradient>
</defs>
</svg>
